<svg xmlns="http://www.w3.org/2000/svg" version="1.1" xmlns:xlink="http://www.w3.org/1999/xlink" xmlns:svgjs="http://svgjs.dev/svgjs" width="1000" height="1000"><g clip-path="url(#SvgjsClipPath2198)"><rect width="1000" height="1000" fill="#d3d3d3"></rect><g transform="matrix(3.1531531531531534,0,0,3.1531531531531534,150,189.4144144144144)"><svg xmlns="http://www.w3.org/2000/svg" version="1.1" xmlns:xlink="http://www.w3.org/1999/xlink" xmlns:svgjs="http://svgjs.dev/svgjs" width="222" height="197"><svg width="222" height="197" viewBox="0 0 222 197" fill="none" xmlns="http://www.w3.org/2000/svg">
<path d="M50.2061 40.3023V41.4617L52.3578 41.6663C55.5683 42.0073 57.9591 43.3714 59.3252 45.622C59.9058 46.6109 60.5889 48.1455 60.828 49.0321C61.1695 50.2256 61.3061 61.0014 61.3745 94.8975L61.5111 139.194L60.0425 138.99C52.0505 137.83 49.4206 137.66 42.18 137.83C34.0172 138.035 30.636 138.546 24.864 140.456C16.5646 143.218 8.53845 149.049 4.33753 155.358C-2.66401 165.861 -1.16124 176.842 8.57261 186.424C15.7449 193.517 25.308 196.825 37.0228 196.279C51.8455 195.597 67.3855 188.981 83.9501 176.364L88.1511 173.159L91.1224 173.704C98.9778 175.171 105.979 177.285 121.588 182.98C139.314 189.425 138.221 189.05 145.837 191.368C151.814 193.21 156.834 194.403 162.743 195.426C169.198 196.518 180.23 196.552 185.626 195.461C192.457 194.062 197.887 191.846 203.898 187.924C207.28 185.742 213.666 179.536 215.682 176.432C220.326 169.374 222.273 162.587 221.898 154.608C221.317 141.786 214.657 132.238 202.054 126.134C195.292 122.86 189.52 121.292 181.938 120.678C162.197 119.041 134.361 130.567 110.317 150.311C109.292 151.164 107.892 152.357 107.175 153.005L105.945 154.165L97.2701 150.755C89.688 147.754 82.2424 144.991 79.0661 143.968L78.0415 143.627V96.6026C78.0415 51.385 78.0757 49.5095 78.6904 47.7363C79.9541 44.1216 82.4815 42.2801 87.024 41.7004C88.7658 41.4958 88.8 41.4617 88.8 40.3705V39.2452L86.8532 39.3816C85.7603 39.4498 82.3449 39.6885 79.2369 39.8931C70.3911 40.5069 64.9264 40.4046 52.3578 39.3475L50.2061 39.1429V40.3023ZM188.017 123.747C201.508 126.577 212.198 134.011 215.169 142.604C217.902 150.55 214.691 161.394 207.519 168.589C199.185 176.944 186.104 181.309 167.695 181.923C154.99 182.366 142.353 180.559 120.392 175.205C112.81 173.363 101.642 170.874 97.68 170.124C95.5283 169.749 93.5474 169.339 93.3083 169.271C93.0692 169.169 93.7864 168.316 95.016 167.191C96.2114 166.134 98.6363 163.849 100.412 162.144C102.222 160.439 104.238 158.529 104.921 157.882L106.15 156.756L107.653 157.268C108.473 157.541 111.649 158.802 114.757 159.996C141.055 170.294 157.791 173.329 174.868 170.942C182.108 169.919 188.085 167.873 192.491 164.94C195.667 162.826 197.512 160.712 199.083 157.506C200.312 154.983 200.312 154.915 200.312 150.516C200.312 144.48 199.39 141.718 197.887 143.218C197.478 143.662 197.478 144.071 197.956 146.253C200.107 156.313 194.506 163.713 182.108 167.225C175.961 168.93 173.262 169.237 163.938 169.237C156.425 169.237 154.614 169.135 150.618 168.453C144.812 167.464 136.957 165.486 130.126 163.235C124.627 161.462 108.985 155.597 108.507 155.119C107.994 154.642 119.538 145.708 126.711 141.036C142.114 131.044 157.654 124.838 171.76 123.065C175.517 122.587 184.158 122.962 188.017 123.747ZM56.0123 140.593C58.164 140.899 60.2815 141.309 60.6914 141.479L61.4769 141.82L61.4428 154.437C61.4086 166.236 61.3403 167.055 60.7938 167.055C60.4523 167.055 60.1108 166.85 60.0083 166.577C59.8717 166.27 59.0178 166.884 57.2418 168.555L54.6803 170.976L55.7732 172.067L56.8661 173.193L62.3308 172.647C68.2052 172.067 82.3791 172.136 83.9843 172.749C84.7357 173.056 84.5308 173.261 80.6372 176.125C65.6437 187.072 52.4945 192.664 38.4914 193.994C29.304 194.881 20.4581 192.733 13.8323 188.027C10.8951 185.946 6.83076 181.616 5.19138 178.819C3.14215 175.307 2.2883 172.272 2.25415 168.589C2.25415 159.723 8.26522 151.437 19.1261 145.333C23.3612 142.945 28.9283 141.206 35.2126 140.286C39.6526 139.672 50.4111 139.842 56.0123 140.593ZM83.2329 147.754C87.8437 149.425 103.486 155.46 103.759 155.665C103.896 155.767 96.7578 162.69 92.9326 166.1C90.132 168.657 90.0978 168.691 88.8341 168.35C86.7166 167.771 83.8818 166.168 82.3449 164.668C79.4418 161.837 77.8708 156.518 77.8708 149.459C77.8708 147.515 77.9391 145.912 78.0415 145.912C78.1098 145.912 80.4665 146.731 83.2329 147.754Z" fill="black"></path>
<path d="M76.9041 9.26103C76.0165 14.3439 75.0961 19.5584 74.866 20.8579C74.5044 22.9305 74.4715 23.6214 74.7509 23.3253C74.866 23.2102 75.0797 22.0258 77.1342 10.2809C78.0382 5.11577 78.8271 0.707316 78.8764 0.444125C78.9421 0.131585 78.9093 -1.06337e-05 78.7449 -1.06337e-05C78.597 -1.06337e-05 78.1039 2.48386 76.9041 9.26103Z" fill="black"></path>
<path d="M61.1912 0.773118C61.1912 0.904713 61.6186 3.40503 63.5909 14.5578C65.1852 23.6872 65.103 23.2924 65.3167 23.0786C65.3989 22.9963 64.7579 18.9169 63.5745 12.1726C62.539 6.25078 61.6514 1.2337 61.6021 1.01986C61.52 0.69087 61.1912 0.493477 61.1912 0.773118Z" fill="black"></path>
<path d="M69.738 14.8045C69.738 21.8613 69.7708 22.8647 69.9845 22.8647C70.1982 22.8647 70.2311 21.8613 70.2311 14.8045C70.2311 7.7477 70.1982 6.74428 69.9845 6.74428C69.7708 6.74428 69.738 7.7477 69.738 14.8045Z" fill="black"></path>
<path d="M46.3167 8.99785C46.366 9.16235 46.9905 10.2974 47.6973 11.5146C54.5511 23.4405 55.9975 25.9408 56.1783 26.1217C56.9836 26.9936 55.981 25.0854 52.0528 18.2589C46.4153 8.45502 46.5796 8.71821 46.366 8.71821C46.2673 8.71821 46.2509 8.84981 46.3167 8.99785Z" fill="black"></path>
<path d="M55.1099 9.29394C55.1099 9.39263 59.2189 20.8086 60.4023 23.9997C60.5009 24.2629 60.5996 24.3452 60.6982 24.2465C60.8954 24.0491 55.603 9.34328 55.3072 9.24459C55.1921 9.21169 55.1099 9.24459 55.1099 9.29394Z" fill="black"></path>
<path d="M81.4568 17.6503C78.712 25.2499 78.9914 24.411 79.1887 24.4932C79.3037 24.5261 84.1688 11.6462 84.2016 11.2185C84.2016 11.2021 84.103 11.1856 84.0044 11.1856C83.8729 11.1856 82.8375 13.8504 81.4568 17.6503Z" fill="black"></path>
<path d="M91.2034 12.5345C91.0883 12.7483 90.1679 14.311 89.1818 16.0382C88.1956 17.749 86.4863 20.7263 85.385 22.6344C83.1991 26.4178 83.1333 26.5659 83.3305 26.6975C83.4127 26.7468 84.1852 25.5624 85.0563 24.0491C85.9274 22.5357 87.7518 19.3446 89.1325 16.9758C90.4966 14.5907 91.6636 12.5345 91.7129 12.4029C91.8444 12.0245 91.4664 12.1397 91.2034 12.5345Z" fill="black"></path>
<path d="M96.6273 17.6338C94.8686 19.7393 91.9923 23.1937 90.2172 25.2993C86.6013 29.6255 86.7328 29.4445 87.0451 29.4445C87.1766 29.4445 90.0858 26.0888 93.5044 21.9929C100.884 13.176 100.194 14.0314 99.9967 13.9162C99.8981 13.8504 98.3859 15.5283 96.6273 17.6338Z" fill="black"></path>
<path d="M42.1255 16.7291C42.1255 16.8607 42.9473 17.8477 49.571 25.7434C51.8556 28.474 52.6445 29.28 52.6445 28.8688C52.6445 28.8194 50.968 26.7633 48.9135 24.2958C46.8426 21.8284 44.5744 19.0978 43.8513 18.226C42.7007 16.8278 42.1255 16.3343 42.1255 16.7291Z" fill="black"></path>
<path d="M37.9507 22.8318C37.9014 22.9141 38.1808 23.276 38.5589 23.6214C40.186 25.0854 48.8478 32.2738 48.9793 32.2574C49.3409 32.208 48.8807 31.7639 45.9058 29.28C44.1471 27.7996 41.7803 25.8092 40.6462 24.8551C39.5122 23.9175 38.4767 23.0292 38.3123 22.9141C38.1644 22.766 38.0165 22.7496 37.9507 22.8318Z" fill="black"></path>
<path d="M96.0849 27.5364C90.0529 32.6357 90.0036 32.6851 90.1679 32.8331C90.2994 32.9647 90.4145 32.866 96.6108 27.6515C102.232 22.947 101.903 23.2266 101.706 23.0621C101.607 22.9634 99.3228 24.7893 96.0849 27.5364Z" fill="black"></path>
<path d="M28.9767 26.1382C28.9767 26.2204 29.4697 26.5988 30.0943 26.9442C30.7025 27.3061 34.5649 29.5268 38.6739 31.9119C42.7829 34.2807 46.2016 36.271 46.2838 36.3039C46.3495 36.3368 46.3988 36.271 46.3988 36.1394C46.3988 35.9256 29.7985 26.1711 29.1903 26.023C29.0753 25.9901 28.9767 26.0395 28.9767 26.1382Z" fill="black"></path>
<path d="M66.8945 26.3191C61.5528 26.9442 57.0165 29.1484 53.1212 33.0469C48.9957 37.1922 46.7933 42.0448 46.3166 47.9831C46.218 49.1181 46.2345 49.3484 46.4317 49.3484C46.6289 49.3484 46.6947 48.9865 46.7769 47.6541C46.9577 44.8577 47.648 42.2915 48.9464 39.5609C52.2829 32.6357 58.7916 27.8818 66.4343 26.7962C68.3409 26.533 72.5156 26.6975 74.34 27.1251C81.5719 28.7865 87.7025 33.9681 90.4638 40.7288C91.4335 43.114 92.206 46.7164 92.2553 49.1345C92.2553 49.2497 92.3375 49.3484 92.4361 49.3484C92.7155 49.3484 92.5183 46.8151 92.0909 44.7425C91.1705 40.2518 89.0174 36.2546 85.7466 32.9976C82.3937 29.6419 78.1696 27.4212 73.5511 26.5659C71.8253 26.2533 68.5546 26.1382 66.8945 26.3191Z" fill="black"></path>
<path d="M108.691 27.1252C107.837 27.6515 107.327 27.9476 100.72 31.7639C92.3868 36.5671 92.5019 36.5013 92.7648 36.6C92.9128 36.6494 94.3756 35.9092 96.3808 34.7413C99.1749 33.1128 106.555 28.8523 109.152 27.3554C109.53 27.1416 109.809 26.8949 109.76 26.7962C109.612 26.5823 109.53 26.6152 108.691 27.1252Z" fill="black"></path>
<path d="M25.4429 33.5404C25.3936 33.6391 25.4429 33.7543 25.558 33.8036C28.6973 34.9222 42.3556 39.9064 43.1609 40.2025C44.443 40.6959 44.4265 40.6959 44.4265 40.4163C44.4265 40.2518 37.7371 37.7679 25.7552 33.4417C25.6402 33.3924 25.5087 33.4417 25.4429 33.5404Z" fill="black"></path>
<path d="M102.939 37.5212C98.4681 39.1497 94.7371 40.5479 94.655 40.6301C94.5728 40.7288 94.5399 40.8275 94.5892 40.8769C94.6714 40.9591 103.761 37.7186 110.302 35.2841C111.37 34.8728 111.831 34.5274 111.288 34.5439C111.173 34.5603 107.409 35.8927 102.939 37.5212Z" fill="black"></path>
<path d="M28.9767 42.6041C28.9767 42.6863 29.026 42.7686 29.1082 42.7686C29.1739 42.7686 32.1488 43.2785 35.7154 43.92C39.282 44.5451 42.4542 45.1044 42.75 45.1537C43.2924 45.2524 43.5061 44.9893 42.9966 44.8412C42.5528 44.7096 29.5684 42.4396 29.2561 42.4396C29.1082 42.4396 28.9767 42.5054 28.9767 42.6041Z" fill="black"></path>
<path d="M102.988 45.0376C99.0762 45.7285 95.8219 46.3536 95.7726 46.4194C95.7069 46.4852 95.6904 46.5674 95.7397 46.6332C95.8219 46.699 99.3392 46.1233 107.212 44.7086C110.844 44.0671 110.844 44.0671 110.729 43.8862C110.598 43.6723 110.795 43.6394 102.988 45.0376Z" fill="black"></path>
<path d="M20.019 50.3266C19.9697 50.4253 20.019 50.524 20.1341 50.5734C20.5614 50.7379 42.8651 50.5734 42.8651 50.4089C42.8651 50.1786 20.167 50.0963 20.019 50.3266Z" fill="black"></path>
<path d="M96.0356 49.7596C96.0356 49.9734 97.4491 50.0063 108.05 50.0063C117.583 50.0063 120.049 49.957 119.999 49.7925C119.934 49.6445 117.353 49.5787 107.985 49.5458C97.4326 49.5129 96.0356 49.5458 96.0356 49.7596Z" fill="black"></path>
</svg></svg></g></g><defs><clipPath id="SvgjsClipPath2198"><rect width="1000" height="1000" x="0" y="0" rx="350" ry="350"></rect></clipPath></defs></svg>